<svg height="512pt" viewBox="-64 0 512 512" width="512pt" xmlns="http://www.w3.org/2000/svg"><path d="m107.390625 301.632812s57.777344 26.917969 57.777344 94.148438v90.953125h54.097656v-90.953125c0-67.230469 57.773437-94.148438 57.773437-94.148438zm0 0" fill="#bee8ea"/><path d="m107.390625 301.632812s47.109375 21.949219 56.25 75.703126c24.929687-1.03125 45.21875-7.441407 60.957031-15.207032 14.300782-42.726562 52.441406-60.496094 52.441406-60.496094zm0 0" fill="#a7d1d8"/><path d="m192.214844 321.3125c-106.15625 0-192.214844-86.058594-192.214844-192.214844v-70.425781c0-32.402344 26.269531-58.671875 58.671875-58.671875h267.089844c32.402343 0 58.671875 26.269531 58.671875 58.671875v70.425781c0 106.15625-86.058594 192.214844-192.21875 192.214844zm0 0" fill="#d4f1f4"/><path d="m103.273438 109.511719v-82.570313c0-9.5625 1.953124-18.667968 5.480468-26.941406h-50.082031c-32.402344 0-58.671875 26.269531-58.671875 58.671875v70.425781c0 106.15625 86.058594 192.214844 192.214844 192.214844 15.742187 0 31.058594-1.894531 45.699218-5.464844-79.269531-34.914062-134.640624-114.160156-134.640624-206.335937zm0 0" fill="#bee8ea"/><path d="m258.878906 512h-133.324218c-18.003907 0-32.734376-14.730469-32.734376-32.734375s14.730469-32.734375 32.734376-32.734375h133.324218c18.003906 0 32.734375 14.730469 32.734375 32.734375s-14.730469 32.734375-32.734375 32.734375zm0 0" fill="#d4f1f4"/><path d="m138.496094 479.265625c0-18.003906 14.730468-32.734375 32.730468-32.734375h-45.671874c-18.003907 0-32.734376 14.730469-32.734376 32.734375s14.730469 32.734375 32.734376 32.734375h45.671874c-18 0-32.730468-14.730469-32.730468-32.734375zm0 0" fill="#bee8ea"/><path d="m0 88.210938v40.886718c0 106.15625 86.058594 192.214844 192.214844 192.214844 106.160156 0 192.21875-86.058594 192.21875-192.214844v-40.886718zm0 0" fill="#ff929f"/><path d="m103.273438 109.511719v-21.300781h-103.273438v40.886718c0 106.15625 86.058594 192.214844 192.214844 192.214844 15.742187 0 31.058594-1.898438 45.699218-5.464844-79.269531-34.914062-134.640624-114.160156-134.640624-206.335937zm0 0" fill="#ff737d"/><path d="m192.214844 221.949219c-15.988282 0-28.945313-12.960938-28.945313-28.949219v-21.046875c0-4.363281 3.535157-7.902344 7.902344-7.902344h42.089844c4.367187 0 7.902343 3.539063 7.902343 7.902344v21.046875c0 15.988281-12.960937 28.949219-28.949218 28.949219zm0 0" fill="#57565c"/><path d="m126.261719 193c0-13.578125-13.824219-24.589844-30.878907-24.589844-17.050781 0-30.878906 11.011719-30.878906 24.589844 0 13.582031 13.828125 24.589844 30.878906 24.589844 17.054688 0 30.878907-11.007813 30.878907-24.589844zm0 0" fill="#fff"/><path d="m319.925781 193c0-13.578125-13.824219-24.589844-30.875-24.589844-17.054687 0-30.878906 11.011719-30.878906 24.589844 0 13.582031 13.824219 24.589844 30.878906 24.589844 17.050781 0 30.875-11.007813 30.875-24.589844zm0 0" fill="#fff"/><g fill="#57565c"><path d="m275.308594 179.503906c-4.269532 0-7.726563-3.460937-7.726563-7.726562v-12.828125c0-4.265625 3.457031-7.726563 7.726563-7.726563 4.265625 0 7.726562 3.460938 7.726562 7.726563v12.828125c0 4.265625-3.460937 7.726562-7.726562 7.726562zm0 0"/><path d="m109.125 179.503906c-4.269531 0-7.726562-3.460937-7.726562-7.726562v-12.828125c0-4.265625 3.457031-7.726563 7.726562-7.726563s7.726562 3.460938 7.726562 7.726563v12.828125c0 4.265625-3.457031 7.726562-7.726562 7.726562zm0 0"/></g></svg>