<svg height="512pt" viewBox="-131 0 511 512" width="512pt" xmlns="http://www.w3.org/2000/svg"><path d="m171.648438 59.328125h-92.539063v-41.453125c0-9.871094 8.003906-17.875 17.878906-17.875h56.78125c9.875 0 17.878907 8.003906 17.878907 17.875zm0 0" fill="#00b4fd"/><path d="m167.179688 90.855469h-83.605469c-12.460938 0-22.5625-10.097657-22.5625-22.558594s10.101562-22.5625 22.5625-22.5625h83.605469c12.460937 0 22.5625 10.101563 22.5625 22.5625s-10.101563 22.558594-22.5625 22.558594zm0 0" fill="#2eddda"/><path d="m236.988281 369.933594c0-18.234375-14.785156-33.019532-33.019531-33.019532h-154.390625c-18.234375 0-33.015625 14.785157-33.015625 33.019532 0 13.9375 8.636719 25.84375 20.847656 30.691406-12.210937 4.847656-20.847656 16.757812-20.847656 30.691406 0 14.832032 9.730469 27.441406 23.179688 31.628906 6.242187 1.945313 11.167968 6.769532 12.847656 13.09375l3.234375 12.175782c3.726562 14.023437 16.421875 23.785156 30.933593 23.785156h79.984376c14.535156 0 27.246093-9.792969 30.949218-23.847656l3.207032-12.167969c1.671874-6.347656 6.621093-11.183594 12.890624-13.136719 13.441407-4.179687 23.199219-16.714844 23.199219-31.53125 0-13.9375-8.640625-25.847656-20.851562-30.691406 12.210937-4.847656 20.851562-16.757812 20.851562-30.691406zm0 0" fill="#76e7e7"/><path d="m107.515625 395.4375c41.902344-4.894531 76.292969-43.386719 88.332031-58.523438h-146.269531c-18.234375 0-33.015625 14.785157-33.015625 33.019532 0 13.9375 8.636719 25.84375 20.847656 30.691406-12.210937 4.847656-20.847656 16.757812-20.847656 30.691406 0 14.832032 9.730469 27.441406 23.179688 31.628906 6.242187 1.945313 11.167968 6.769532 12.847656 13.09375l3.234375 12.175782c3.726562 14.023437 16.421875 23.785156 30.933593 23.785156h55.691407c-10.804688-51.382812-62.878907-48.375-64.511719-78.039062-.640625-11.65625 2.46875-19.832032 6.617188-25.53125 5.390624-7.414063 13.859374-11.929688 22.960937-12.992188zm0 0" fill="#2eddda"/><path d="m125.378906 85.792969c-104.636718 0-147.886718 62.78125-113.007812 108.824219 34.878906 46.039062 41.855468 97.660156 41.855468 97.660156h142.304688s6.976562-51.621094 41.855469-97.660156c34.878906-46.039063-8.371094-108.824219-113.007813-108.824219zm0 0" fill="#b0f0ef"/><path d="m125.378906 85.796875c-104.636718 0-147.886718 62.78125-113.007812 108.820313 34.878906 46.039062 41.855468 97.660156 41.855468 97.660156h66.085938c-10.585938-19.085938-31.429688-61.691406-41.203125-116.398438-13.410156-75.058594 46.269531-90.082031 46.269531-90.082031zm0 0" fill="#76e7e7"/><path d="m196.53125 292.277344s6.976562-51.621094 41.855469-97.660156c-37.511719 4.519531-51.617188 7.414062-120.382813-29.984376-68.765625-37.402343-105.632812 29.984376-105.632812 29.984376 34.878906 46.039062 41.855468 97.660156 41.855468 97.660156zm0 0" fill="#76e7e7"/><path d="m79.109375 175.878906c-1.46875-8.210937-2.058594-15.710937-1.949219-22.546875-42.40625.382813-64.789062 41.285157-64.789062 41.285157 34.878906 46.039062 41.855468 97.660156 41.855468 97.660156h66.085938c-10.585938-19.085938-31.429688-61.691406-41.203125-116.398438zm0 0" fill="#2eddda"/><path d="m208.804688 340.210938h-164.058594c-11.199219 0-20.277344-9.082032-20.277344-20.28125v-64.535157c0-11.199219 9.078125-20.277343 20.277344-20.277343h164.058594c11.199218 0 20.277343 9.078124 20.277343 20.277343v64.535157c0 11.203124-9.078125 20.28125-20.277343 20.28125zm0 0" fill="#fcf5af"/><path d="m81.03125 319.933594v-64.539063c0-11.199219 9.082031-20.277343 20.28125-20.277343h-56.566406c-11.199219 0-20.277344 9.078124-20.277344 20.277343v64.539063c0 11.199218 9.078125 20.277344 20.277344 20.277344h56.5625c-11.199219 0-20.277344-9.078126-20.277344-20.277344zm0 0" fill="#f4e74d"/><g fill="#454545"><path d="m175.613281 300.375c-4.269531 0-7.726562-3.457031-7.726562-7.726562v-12.824219c0-4.269531 3.457031-7.726563 7.726562-7.726563s7.726563 3.457032 7.726563 7.726563v12.824219c0 4.269531-3.457032 7.726562-7.726563 7.726562zm0 0"/><path d="m77.9375 300.375c-4.269531 0-7.726562-3.457031-7.726562-7.726562v-12.824219c0-4.269531 3.457031-7.726563 7.726562-7.726563s7.726562 3.457032 7.726562 7.726563v12.824219c0 4.269531-3.460937 7.726562-7.726562 7.726562zm0 0"/><path d="m132.054688 284.929688c-1.734376 2.542968-4.253907 2.847656-5.28125 2.847656-1.023438 0-3.585938-.277344-5.277344-2.847656-2.34375-3.566407-7.132813-4.558594-10.699219-2.214844s-4.558594 7.132812-2.214844 10.699218c4.039063 6.148438 10.839844 9.816407 18.191407 9.816407 7.355468 0 14.15625-3.667969 18.195312-9.816407 2.34375-3.566406 1.351562-8.355468-2.214844-10.699218-1.308594-.859375-7.089844-3.082032-10.699218 2.214844zm0 0"/></g></svg>