<svg height="512pt" viewBox="0 0 512 512" width="512pt" xmlns="http://www.w3.org/2000/svg"><path d="m0 121.5625h512v350.261719h-512zm0 0" fill="#4dd0e1"/><path d="m256 121.5625h256v350.261719h-256zm0 0" fill="#f44336"/><path d="m481.09375 121.5625h30.90625v350.261719h-30.90625zm0 0" fill="#e53935"/><path d="m179.289062 22.136719c-4.144531 0-7.5 3.359375-7.5 7.5v88.042969c0 4.140624 3.355469 7.5 7.5 7.5 4.140626 0 7.5-3.359376 7.5-7.5v-88.042969c0-4.140625-3.359374-7.5-7.5-7.5zm0 0" fill="#61747d"/><path d="m332.710938 22.136719c-4.140626 0-7.5 3.359375-7.5 7.5v88.042969c0 4.140624 3.359374 7.5 7.5 7.5 4.144531 0 7.5-3.359376 7.5-7.5v-88.042969c0-4.140625-3.355469-7.5-7.5-7.5zm0 0" fill="#61747d"/><path d="m207.101562 41.207031h-55.628906c-4.550781 0-8.242187-3.691406-8.242187-8.242187v-24.722656c0-4.554688 3.691406-8.242188 8.242187-8.242188h55.628906c4.554688 0 8.242188 3.691406 8.242188 8.242188v24.722656c0 4.550781-3.691406 8.242187-8.242188 8.242187zm0 0" fill="#ffc107"/><path d="m207.101562 0h-30.90625c4.554688 0 8.242188 3.691406 8.242188 8.242188v24.722656c0 4.550781-3.691406 8.242187-8.242188 8.242187h30.90625c4.550782 0 8.242188-3.691406 8.242188-8.242187v-24.722656c0-4.550782-3.691406-8.242188-8.242188-8.242188zm0 0" fill="#ffb300"/><path d="m360.527344 41.207031h-55.628906c-4.554688 0-8.242188-3.691406-8.242188-8.242187v-24.722656c0-4.554688 3.691406-8.242188 8.242188-8.242188h55.628906c4.550781 0 8.242187 3.691406 8.242187 8.242188v24.722656c0 4.550781-3.691406 8.242187-8.242187 8.242187zm0 0" fill="#ffc107"/><path d="m360.527344 0h-30.90625c4.554687 0 8.242187 3.691406 8.242187 8.242188v24.722656c0 4.550781-3.691406 8.242187-8.242187 8.242187h30.90625c4.550781 0 8.242187-3.691406 8.242187-8.242187v-24.722656c0-4.550782-3.691406-8.242188-8.242187-8.242188zm0 0" fill="#ffb300"/><path d="m512 137.015625h-512v-26.90625c0-2.210937 1.789062-4 4-4h504c2.210938 0 4 1.789063 4 4zm0 0" fill="#78909c"/><path d="m481.09375 106.109375v30.90625h30.90625v-26.90625c0-2.210937-1.789062-4-4-4zm0 0" fill="#6c838c"/><path d="m508 512h-504c-2.210938 0-4-1.789062-4-4v-51.628906h512v51.628906c0 2.210938-1.789062 4-4 4zm0 0" fill="#78909c"/><path d="m481.09375 456.371094v55.628906h26.90625c2.210938 0 4-1.789062 4-4v-51.628906zm0 0" fill="#6c838c"/><g fill="#ebebeb"><path d="m75.839844 378.984375h-22.90625c-2.207032 0-4-1.792969-4-4v-146.527344c0-2.210937 1.792968-4 4-4h22.90625c2.207031 0 4 1.789063 4 4v146.527344c0 2.207031-1.792969 4-4 4zm0 0"/><path d="m199.460938 378.984375h-22.90625c-2.207032 0-4-1.792969-4-4v-146.527344c0-2.210937 1.792968-4 4-4h22.90625c2.210937 0 4 1.789063 4 4v146.527344c0 2.207031-1.789063 4-4 4zm0 0"/><path d="m79.839844 220.457031v-22.90625c0-2.210937 1.789062-4 4-4h84.714844c2.210937 0 4 1.789063 4 4v22.902344c0 2.210937-1.789063 4-4 4h-84.714844c-2.210938.003906-4-1.789063-4-3.996094zm0 0"/><path d="m79.839844 405.886719v-22.902344c0-2.210937 1.789062-4 4-4h84.714844c2.210937 0 4 1.789063 4 4v22.902344c0 2.210937-1.789063 4-4 4h-84.714844c-2.210938 0-4-1.789063-4-4zm0 0"/><path d="m462.039062 228.460938v146.519531c0 2.207031-1.789062 4-4 4h-22.910156c-2.207031 0-4-1.792969-4-4v-53.808594c0-2.210937-1.789062-4-4-4h-115.617187c-2.210938 0-4-1.792969-4-4v-22.902344c0-2.207031 1.789062-4 4-4h115.617187c2.210938 0 4-1.789062 4-4v-53.808593c0-2.210938 1.792969-4 4-4h22.910156c2.210938 0 4 1.789062 4 4zm0 0"/><path d="m307.507812 220.457031v-22.90625c0-2.210937 1.792969-4 4-4h115.625c2.207032 0 4 1.789063 4 4v22.902344c0 2.210937-1.792968 4-4 4h-115.625c-2.207031.003906-4-1.789063-4-3.996094zm0 0"/><path d="m307.507812 405.886719v-22.902344c0-2.210937 1.792969-4 4-4h115.625c2.207032 0 4 1.789063 4 4v22.902344c0 2.210937-1.792968 4-4 4h-115.625c-2.207031 0-4-1.789063-4-4zm0 0"/><path d="m69.808594 476.171875h-14.421875c-4.140625 0-7.5 3.355469-7.5 7.5 0 4.140625 3.359375 7.5 7.5 7.5h14.421875c4.144531 0 7.5-3.359375 7.5-7.5 0-4.144531-3.355469-7.5-7.5-7.5zm0 0"/><path d="m118.160156 476.171875h-14.421875c-4.140625 0-7.5 3.355469-7.5 7.5 0 4.140625 3.359375 7.5 7.5 7.5h14.421875c4.140625 0 7.5-3.359375 7.5-7.5 0-4.144531-3.359375-7.5-7.5-7.5zm0 0"/><path d="m166.511719 476.171875h-14.421875c-4.144532 0-7.5 3.355469-7.5 7.5 0 4.140625 3.355468 7.5 7.5 7.5h14.421875c4.140625 0 7.5-3.359375 7.5-7.5 0-4.144531-3.359375-7.5-7.5-7.5zm0 0"/><path d="m214.859375 476.171875h-14.421875c-4.140625 0-7.5 3.355469-7.5 7.5 0 4.140625 3.359375 7.5 7.5 7.5h14.421875c4.144531 0 7.5-3.359375 7.5-7.5 0-4.144531-3.355469-7.5-7.5-7.5zm0 0"/><path d="m263.210938 476.171875h-14.421876c-4.144531 0-7.5 3.355469-7.5 7.5 0 4.140625 3.355469 7.5 7.5 7.5h14.421876c4.140624 0 7.5-3.359375 7.5-7.5 0-4.144531-3.355469-7.5-7.5-7.5zm0 0"/><path d="m311.5625 476.171875h-14.421875c-4.144531 0-7.5 3.355469-7.5 7.5 0 4.140625 3.355469 7.5 7.5 7.5h14.421875c4.140625 0 7.5-3.359375 7.5-7.5 0-4.144531-3.359375-7.5-7.5-7.5zm0 0"/><path d="m359.910156 476.171875h-14.421875c-4.140625 0-7.5 3.355469-7.5 7.5 0 4.140625 3.359375 7.5 7.5 7.5h14.421875c4.144532 0 7.5-3.359375 7.5-7.5 0-4.144531-3.355468-7.5-7.5-7.5zm0 0"/><path d="m408.261719 476.171875h-14.421875c-4.140625 0-7.5 3.355469-7.5 7.5 0 4.140625 3.359375 7.5 7.5 7.5h14.421875c4.140625 0 7.5-3.359375 7.5-7.5 0-4.144531-3.355469-7.5-7.5-7.5zm0 0"/><path d="m456.613281 476.171875h-14.421875c-4.144531 0-7.5 3.355469-7.5 7.5 0 4.140625 3.355469 7.5 7.5 7.5h14.421875c4.140625 0 7.5-3.359375 7.5-7.5 0-4.144531-3.359375-7.5-7.5-7.5zm0 0"/></g></svg>