<?xml version="1.0" encoding="iso-8859-1"?>
<!-- Generator: Adobe Illustrator 19.0.0, SVG Export Plug-In . SVG Version: 6.00 Build 0)  -->
<svg xmlns="http://www.w3.org/2000/svg" xmlns:xlink="http://www.w3.org/1999/xlink" version="1.1" id="Layer_1" x="0px" y="0px" viewBox="0 0 512 512" style="enable-background:new 0 0 512 512;" xml:space="preserve" width="512" height="512">
<g>
	<path style="fill:#ADF5FF;" d="M437,0H256L128,256l128,256h181c41.355,0,75-33.645,75-75V75C512,33.645,478.355,0,437,0z"/>
	<path style="fill:#D6FAFF;" d="M75,0C33.645,0,0,33.645,0,75v362c0,41.355,33.645,75,75,75h181V0H75z"/>
	<polygon points="392,60 256,60 196,135 256,210 392,210  "/>
	<rect x="120" y="60" style="fill:#292C32;" width="136" height="150"/>
	<polygon style="fill:#5DC75D;" points="256,120 226,135 256,150 332,150 332,120  "/>
	<rect x="180" y="120" style="fill:#AED06D;" width="76" height="30"/>
</g>















</svg>
