<svg height="512pt" viewBox="0 -48 512 512" width="512pt" xmlns="http://www.w3.org/2000/svg"><path d="m442.894531 415.929688h-373.789062c-38.167969 0-69.105469-30.9375-69.105469-69.101563v-233.886719c0-38.164062 30.9375-69.101562 69.105469-69.101562h373.789062c38.167969 0 69.105469 30.9375 69.105469 69.101562v233.886719c0 38.164063-30.9375 69.101563-69.105469 69.101563zm0 0" fill="#889cb0"/><path d="m165.824219 43.839844h-96.71875c-38.167969 0-69.105469 30.9375-69.105469 69.101562v233.886719c0 38.164063 30.9375 69.101563 69.105469 69.101563h148.679687c.359375-18.914063-3.457031-44.542969-20.589844-70.320313-48.828124-73.480469-32.550781-225.890625-32.550781-287.0625 0-5.386719.421875-10.265625 1.179688-14.707031zm0 0" fill="#6a829a"/><path d="m442.894531 372.09375h-373.789062c-38.167969 0-69.105469-30.941406-69.105469-69.105469v-233.882812c0-38.167969 30.9375-69.105469 69.105469-69.105469h373.789062c38.167969 0 69.105469 30.9375 69.105469 69.105469v233.882812c0 38.164063-30.9375 69.105469-69.105469 69.105469zm0 0" fill="#fcf5af"/><path d="m197.195312 345.609375c-48.828124-73.480469-32.550781-225.890625-32.550781-287.0625 0-53.976563 41.742188-58.28125 51.570313-58.546875h-147.109375c-38.167969 0-69.105469 30.9375-69.105469 69.105469v233.882812c0 38.164063 30.9375 69.105469 69.105469 69.105469h141.488281c-3.121094-8.628906-7.457031-17.546875-13.398438-26.484375zm0 0" fill="#f4e74d"/><path d="m92.28125 0h-23.175781c-38.167969 0-69.105469 30.9375-69.105469 69.105469v233.882812c0 38.164063 30.9375 69.105469 69.105469 69.105469h23.171875v-372.09375zm0 0" fill="#889cb0"/><path d="m419.71875 0h23.175781c38.164063 0 69.105469 30.9375 69.105469 69.105469v233.882812c0 38.164063-30.941406 69.105469-69.105469 69.105469h-23.175781zm0 0" fill="#a7b6c5"/><path d="m485.949219 186.046875c0 11.09375-8.996094 20.085937-20.089844 20.085937s-20.085937-8.992187-20.085937-20.085937 8.992187-20.085937 20.085937-20.085937 20.089844 8.992187 20.089844 20.085937zm0 0" fill="#889cb0"/><path d="m347.492188 215.097656c0 34.464844-27.9375 62.402344-62.402344 62.402344-34.460938 0-62.402344-27.9375-62.402344-62.402344 0-34.460937 27.941406-62.398437 62.402344-62.398437 34.464844 0 62.402344 27.9375 62.402344 62.398437zm0 0" fill="#ff899f"/><path d="m354.863281 197.539062-13.90625 2.910157c-8.289062 1.738281-15.632812-5.605469-13.898437-13.898438l2.910156-13.90625c1.386719-6.628906 4.679688-12.710937 9.46875-17.503906l99.402344-99.398437c9.09375-9.09375 23.835937-9.09375 32.925781 0 9.09375 9.089843 9.09375 23.832031 0 32.925781l-99.398437 99.402343c-4.792969 4.789063-10.875 8.082032-17.503907 9.46875zm0 0" fill="#6a829a"/><path d="m175.0625 207.964844h-20.835938c-12.226562 0-22.136718-9.910156-22.136718-22.132813v-121.429687c0-12.222656 9.910156-22.132813 22.136718-22.132813h20.835938c12.222656 0 22.132812 9.90625 22.132812 22.132813v121.429687c0 12.222657-9.910156 22.132813-22.132812 22.132813zm0 0" fill="#00bfd7"/><path d="m62.507812 255.765625c0 9.039063-7.328124 16.367187-16.367187 16.367187s-16.367187-7.328124-16.367187-16.367187 7.328124-16.367187 16.367187-16.367187 16.367187 7.328124 16.367187 16.367187zm0 0" fill="#6a829a"/><path d="m46.140625 205.433594c-9.039063 0-16.367187-7.328125-16.367187-16.367188v-72.738281c0-9.039063 7.328124-16.367187 16.367187-16.367187s16.367187 7.328124 16.367187 16.367187v72.738281c0 9.039063-7.328124 16.367188-16.367187 16.367188zm0 0" fill="#6a829a"/><g fill="#81d9e7"><path d="m164.644531 42.269531h-10.417969c-12.226562 0-22.136718 9.910157-22.136718 22.132813v10.417968h32.554687zm0 0"/><path d="m164.644531 74.820312h32.550781v32.554688h-32.550781zm0 0"/><path d="m132.089844 107.375h32.554687v32.550781h-32.554687zm0 0"/></g><path d="m154.226562 207.964844h20.835938c12.222656 0 22.132812-9.910156 22.132812-22.132813v-45.90625h-65.101562v45.90625c-.003906 12.222657 9.90625 22.132813 22.132812 22.132813zm0 0" fill="#00a8c3"/></svg>