<svg height="512pt" viewBox="-43 0 512 512.00025" width="512pt" xmlns="http://www.w3.org/2000/svg"><path d="m234.820312 394.589844c0 64.84375-52.566406 117.410156-117.410156 117.410156s-117.410156-52.566406-117.410156-117.410156 52.566406-117.410156 117.410156-117.410156 117.410156 52.566406 117.410156 117.410156zm0 0" fill="#f6334c"/><path d="m426.371094 394.589844c0 64.84375-52.566406 117.410156-117.410156 117.410156s-117.410157-52.566406-117.410157-117.410156 52.566407-117.410156 117.410157-117.410156 117.410156 52.566406 117.410156 117.410156zm0 0" fill="#ff8a98"/><path d="m191.550781 394.589844c0 47.378906 28.066407 88.207031 68.480469 106.761718-6.394531-27.09375-4.917969-53.164062-1.210938-73.902343 4.148438-23.210938 23.390626-40.652344 46.886719-42.597657 75.910157-6.289062 56.824219-94.765624 56.824219-94.765624-16.0625-8.25-34.269531-12.90625-53.570312-12.90625-64.84375 0-117.410157 52.566406-117.410157 117.410156zm0 0" fill="#fd5c6f"/><path d="m106.035156 340.703125c-8.980468-10.59375-6.882812-26.679687 3.976563-35.34375 38.140625-30.425781 62.777343-75.695313 73.226562-134.550781 8.101563-45.636719 4.132813-82.523438 4.09375-82.886719-1.539062-13.789063 8.371094-26.242187 22.15625-27.804687 13.78125-1.550782 26.226563 8.304687 27.816407 22.085937.199218 1.746094 4.820312 43.3125-4.269532 95.828125-12.28125 70.988281-43.976562 128.613281-91.65625 166.648438-4.632812 3.695312-23.96875 9.441406-35.34375-3.976563zm0 0" fill="#b24e2f"/><path d="m209.488281 60.117188c-13.785156 1.566406-23.695312 14.015624-22.15625 27.804687.039063.351563 3.742188 34.785156-3.308593 78.253906 6.671874 7.496094 14.136718 15.488281 22.15625 23.410157 8.304687 8.203124 14.488281 15.945312 19.097656 22.859374 3.117187-11.078124 5.710937-22.5625 7.761718-34.414062 9.085938-52.515625 4.46875-94.082031 4.265626-95.828125-1.585938-13.78125-14.035157-23.636719-27.816407-22.085937zm0 0" fill="#a34325"/><path d="m304.652344 349.800781c-13.5625-2.832031-22.804688-15.339843-20.488282-28.988281.046876-.277344 4.484376-28.007812-2.519531-65.816406-9.214843-49.761719-32.972656-92.933594-70.617187-128.316406-18.394532-17.289063-28.828125-41.652344-28.625-66.839844.136718-17.027344.460937-34.96875.464844-35.148438.253906-13.882812 11.675781-24.910156 25.601562-24.68749975 13.886719.25390575 24.941406 11.71484375 24.691406 25.60156275-.003906.175781-.324218 17.875-.460937 34.640625-.089844 11.210937 4.566406 22.066406 12.777343 29.785156 45.582032 42.84375 75.335938 97.527344 86.046876 158.140625 8.132812 46.027344 2.457031 79.742187 2.214843 81.15625-2.125 12.226563-15.414062 23.324219-29.085937 20.472656zm0 0" fill="#cb5935"/></svg>