<svg height="512pt" viewBox="0 -13 512 512" width="512pt" xmlns="http://www.w3.org/2000/svg"><path d="m366.222656 0h-220.445312c-62.464844 0-113.101563 50.636719-113.101563 113.101562v98.898438h446.648438v-98.898438c0-62.464843-50.636719-113.101562-113.101563-113.101562zm0 0" fill="#76e7e7"/><path d="m161.6875 164.429688c0 26.273437-21.300781 47.570312-47.570312 47.570312-26.273438 0-47.570313-21.296875-47.570313-47.570312 0-26.269532 21.296875-47.566407 47.570313-47.566407 26.269531 0 47.570312 21.296875 47.570312 47.566407zm0 0" fill="#fb695b"/><path d="m445.453125 164.429688c0 26.273437-21.296875 47.570312-47.570313 47.570312-26.269531 0-47.570312-21.296875-47.570312-47.570312 0-26.269532 21.300781-47.566407 47.570312-47.566407 26.273438 0 47.570313 21.296875 47.570313 47.566407zm0 0" fill="#fb695b"/><path d="m320.988281 486.421875h-129.976562c-21.835938 0-39.535157-17.699219-39.535157-39.53125v-41.488281h209.046876v41.488281c0 21.832031-17.699219 39.53125-39.535157 39.53125zm0 0" fill="#00d2ce"/><path d="m338.9375 439.234375h-165.878906c-77.53125 0-140.382813-62.851563-140.382813-140.386719v-71.613281h446.648438v71.613281c0 77.535156-62.851563 140.386719-140.386719 140.386719zm0 0" fill="#76e7e7"/><path d="m201.953125 302.410156c47.992187-11.339844 73.011719-33.207031 73.011719-33.207031v-41.96875h-242.289063v71.613281c0 77.535156 62.851563 140.386719 140.382813 140.386719h62.097656c-35.890625-14.582031-56.46875-40.632813-68.226562-65.632813-13.796876-29.347656 3.460937-63.730468 35.023437-71.191406zm0 0" fill="#2eddda"/><path d="m132.082031 202.023438c-12.746093-12.746094-16.667969-30.695313-12.710937-47.035157 4.28125-17.675781-11.734375-35.835937-12.726563-36.984375-15.738281-18.261718-15.648437-45.804687.210938-63.960937 18.824219-21.550781 51.59375-22.378907 71.488281-2.484375.164062.164062 14.886719 14.191406 34.835938 10.046875 16.257812-3.378907 33.863281.261719 46.460937 12.859375 13.84375 13.84375 17.644531 33.925781 11.417969 51.199218 0 0-15.402344 43.210938 10.316406 68.925782l-29.167969 29.167968c-25.714843-25.71875-68.925781-10.316406-68.925781-10.316406-17.277344 6.226563-37.355469 2.425782-51.199219-11.417968zm0 0" fill="#29ce69"/><path d="m180.636719 130.492188c-2.015625 32.328124-10.210938 63.179687-30.632813 82.941406 10.730469 3.875 22.546875 3.875 33.277344.007812 0 0 43.210938-15.402344 68.925781 10.3125l29.164063-29.164062c-25.714844-25.714844-10.316406-68.925782-10.316406-68.925782 6.230468-17.277343 2.429687-37.355468-11.417969-51.203124-12.59375-12.59375-30.203125-16.234376-46.460938-12.855469.003907 0-29.613281 21.902343-32.539062 68.886719zm0 0" fill="#00c140"/><path d="m255.863281 220.101562-103.683593-103.683593c-6.035157-6.035157-6.035157-15.820313 0-21.855469 6.035156-6.03125 15.820312-6.03125 21.855468 0l103.683594 103.6875zm0 0" fill="#00a62c"/><path d="m379.917969 202.023438c12.746093-12.746094 16.667969-30.695313 12.710937-47.035157-4.28125-17.675781 11.734375-35.835937 12.726563-36.984375 15.738281-18.261718 15.652343-45.804687-.210938-63.960937-18.824219-21.550781-51.59375-22.378907-71.488281-2.484375-.164062.164062-14.886719 14.191406-34.835938 10.046875-16.257812-3.378907-33.863281.261719-46.460937 12.859375-13.84375 13.84375-17.644531 33.925781-11.417969 51.199218 0 0 15.402344 43.210938-10.316406 68.925782l29.167969 29.167968c25.714843-25.71875 68.925781-10.316406 68.925781-10.316406 17.277344 6.226563 37.355469 2.425782 51.199219-11.417968zm0 0" fill="#73da8c"/><path d="m234.28125 198.246094 103.683594-103.683594c6.035156-6.035156 15.820312-6.035156 21.855468 0 6.035157 6.035156 6.035157 15.820312 0 21.851562l-103.683593 103.6875zm0 0" fill="#00c140"/><path d="m470.03125 269.203125h-428.0625c-23.179688 0-41.96875-18.789063-41.96875-41.96875s18.789062-41.972656 41.96875-41.972656h428.0625c23.179688 0 41.96875 18.792969 41.96875 41.972656s-18.789062 41.96875-41.96875 41.96875zm0 0" fill="#b0f0ef"/><path d="m256 379.667969c-15.988281 0-28.949219-12.960938-28.949219-28.949219v-21.046875c0-4.367187 3.539063-7.902344 7.902344-7.902344h42.09375c4.363281 0 7.902344 3.535157 7.902344 7.902344v21.046875c-.003907 15.988281-12.960938 28.949219-28.949219 28.949219zm0 0" fill="#454545"/><path d="m190.042969 350.71875c0-13.582031-13.824219-24.589844-30.875-24.589844-17.054688 0-30.878907 11.007813-30.878907 24.589844 0 13.578125 13.824219 24.589844 30.878907 24.589844 17.050781 0 30.875-11.011719 30.875-24.589844zm0 0" fill="#fdb2db"/><path d="m383.710938 350.71875c0-13.582031-13.824219-24.589844-30.878907-24.589844-17.050781 0-30.875 11.007813-30.875 24.589844 0 13.578125 13.824219 24.589844 30.875 24.589844 17.054688 0 30.878907-11.011719 30.878907-24.589844zm0 0" fill="#fdb2db"/><g fill="#454545"><path d="m339.089844 337.21875c-4.265625 0-7.726563-3.457031-7.726563-7.726562v-12.824219c0-4.269531 3.460938-7.726563 7.726563-7.726563 4.269531 0 7.726562 3.457032 7.726562 7.726563v12.824219c0 4.269531-3.457031 7.726562-7.726562 7.726562zm0 0"/><path d="m172.910156 337.21875c-4.269531 0-7.726562-3.457031-7.726562-7.726562v-12.824219c0-4.269531 3.457031-7.726563 7.726562-7.726563 4.265625 0 7.726563 3.457032 7.726563 7.726563v12.824219c0 4.269531-3.460938 7.726562-7.726563 7.726562zm0 0"/></g></svg>