<svg height="511pt" viewBox="0 -8 511.99953 511" width="511pt" xmlns="http://www.w3.org/2000/svg"><path d="m207.277344 65.089844c0 35.667968-28.917969 64.585937-64.589844 64.585937s-64.585938-28.917969-64.585938-64.585937c0-35.671875 28.914063-64.589844 64.585938-64.589844s64.589844 28.917969 64.589844 64.589844zm0 0" fill="#db2a17"/><path d="m492.003906 122.214844c0 35.671875-28.917968 64.589844-64.589844 64.589844-35.671874 0-64.589843-28.917969-64.589843-64.589844 0-35.667969 28.917969-64.585938 64.589843-64.585938 35.671876 0 64.589844 28.917969 64.589844 64.585938zm0 0" fill="#fb695b"/><path d="m137.605469 122.214844c0 35.671875-28.917969 64.589844-64.589844 64.589844s-64.589844-28.917969-64.589844-64.589844c0-35.667969 28.917969-64.585938 64.589844-64.585938s64.589844 28.917969 64.589844 64.585938zm0 0" fill="#fb695b"/><path d="m422.59375 66.539062c-17.191406-20.207031-43.554688-28-67.742188-22.46875-12.289062 2.808594-25.003906-1.917968-32.863281-11.769531-15.457031-19.378906-39.269531-31.800781-65.988281-31.800781s-50.53125 12.421875-65.992188 31.804688c-7.855468 9.847656-20.566406 14.582031-32.847656 11.773437-24.226562-5.546875-50.632812 2.277344-67.820312 22.539063-24.5625 28.957031-21 72.34375 7.957031 96.90625 28.953125 24.5625 288.566406 24.539062 317.488281-.070313 28.917969-24.605469 32.414063-67.996094 7.808594-96.914063zm0 0" fill="#73da8c"/><path d="m373.4375 175.269531c-25.257812-47.878906-76.382812-73.320312-111.785156-85.980469-30.578125-10.933593-37.734375-51.324218-12.578125-71.863281 13.121093-10.714843 26.390625-14.667969 26.390625-14.667969-6.25-1.476562-12.765625-2.257812-19.464844-2.257812-26.71875 0-50.53125 12.421875-65.988281 31.804688-7.855469 9.851562-20.566407 14.585937-32.847657 11.773437-24.230468-5.546875-50.636718 2.277344-67.824218 22.539063-24.5625 28.957031-21 72.34375 7.957031 96.90625 23.164063 19.648437 193.949219 23.5625 276.140625 11.746093zm0 0" fill="#29ce69"/><path d="m38.324219 170.890625c-23.335938 2.28125-40.402344 23.050781-38.121094 46.382813 1.738281 17.765624 14.191406 31.894531 30.335937 36.617187 7.988282 2.339844 14.296876 8.394531 17.710938 15.988281 6.230469 13.859375 20.15625 23.507813 36.335938 23.507813 21.996093 0 39.824218-17.828125 39.824218-39.820313 0-21.890625-62.753906-84.960937-86.085937-82.675781zm0 0" fill="#29ce69"/><path d="m473.675781 170.890625c23.335938 2.28125 40.402344 23.050781 38.117188 46.382813-1.734375 17.765624-14.1875 31.894531-30.332031 36.617187-7.988282 2.339844-14.296876 8.394531-17.710938 15.988281-6.230469 13.859375-20.15625 23.507813-36.335938 23.507813-21.996093 0-39.824218-17.828125-39.824218-39.820313 0-21.890625 62.75-84.960937 86.085937-82.675781zm0 0" fill="#73da8c"/><path d="m427.414062 111.089844h-342.828124c-32.136719 0-58.191407 26.054687-58.191407 58.191406 0 22.4375 12.695313 41.90625 31.296875 51.617188 16.351563 8.539062 26.894532 25.140624 26.894532 43.585937v163.582031h342.828124v-163.582031c0-18.445313 10.542969-35.046875 26.894532-43.585937 18.601562-9.710938 31.296875-29.179688 31.296875-51.617188 0-32.136719-26.054688-58.191406-58.191407-58.191406zm0 0" fill="#ffe4d3"/><path d="m207.277344 111.089844h-122.691406c-32.136719 0-58.191407 26.054687-58.191407 58.191406 0 22.4375 12.695313 41.90625 31.296875 51.617188 16.351563 8.539062 26.894532 25.140624 26.894532 43.585937v163.582031h141.527343c-6.636719-199.085937-88.507812-196.488281-88.507812-252.910156 0-56.917969 69.671875-64.066406 69.671875-64.066406zm0 0" fill="#ffc7a4"/><path d="m363.109375 495.976562h-214.21875c-35.515625 0-64.304687-28.792968-64.304687-64.308593v-138.28125h342.828124v138.28125c0 35.515625-28.789062 64.308593-64.304687 64.308593zm0 0" fill="#2eddda"/><path d="m427.414062 293.386719v138.28125c0 35.515625-28.789062 64.304687-64.304687 64.304687h-214.21875c77.378906-149.589844 278.523437-202.585937 278.523437-202.585937zm0 0" fill="#76e7e7"/><path d="m84.585938 293.386719v138.28125c0 35.515625 28.789062 64.304687 64.304687 64.304687h214.21875c-77.378906-149.589844-278.523437-202.585937-278.523437-202.585937zm0 0" fill="#b0f0ef"/><path d="m198.5 239.21875c0-9.351562-9.523438-16.933594-21.265625-16.933594s-21.265625 7.582032-21.265625 16.933594 9.523438 16.933594 21.265625 16.933594 21.265625-7.582032 21.265625-16.933594zm0 0" fill="#ff83b4"/><path d="m356.03125 239.21875c0-9.351562-9.523438-16.933594-21.265625-16.933594s-21.265625 7.582032-21.265625 16.933594 9.523438 16.933594 21.265625 16.933594 21.265625-7.582032 21.265625-16.933594zm0 0" fill="#ff83b4"/><g fill="#454545"><path d="m261.277344 220.917969c-1.730469 2.542969-4.253906 2.847656-5.277344 2.847656s-3.589844-.277344-5.277344-2.847656c-2.34375-3.566407-7.132812-4.558594-10.699218-2.214844-3.566407 2.34375-4.558594 7.132813-2.214844 10.699219 4.035156 6.148437 10.835937 9.816406 18.191406 9.816406s14.15625-3.667969 18.191406-9.816406c2.34375-3.566406 1.351563-8.355469-2.214844-10.699219-1.308593-.859375-7.089843-3.082031-10.699218 2.214844zm0 0"/><path d="m194.785156 224.539062c-.960937-.804687-1.917968-1.019531-2.457031-1.019531s-1.574219.128907-2.460937 1.019531c-3.015626 3.015626-7.910157 3.015626-10.925782 0-3.019531-3.019531-3.019531-7.910156 0-10.929687 3.574219-3.574219 8.328125-5.542969 13.386719-5.542969 5.054687 0 9.808594 1.96875 13.382813 5.542969 3.019531 3.019531 3.019531 7.910156 0 10.929687-1.503907 1.507813-6.046876 4.082032-10.925782 0zm0 0"/><path d="m322.128906 224.539062c-.960937-.804687-1.917968-1.019531-2.457031-1.019531s-1.574219.128907-2.460937 1.019531c-3.015626 3.015626-7.910157 3.015626-10.925782 0-3.019531-3.019531-3.019531-7.910156 0-10.929687 3.574219-3.574219 8.328125-5.542969 13.386719-5.542969 5.054687 0 9.808594 1.96875 13.382813 5.542969 3.019531 3.019531 3.019531 7.910156 0 10.929687-1.503907 1.507813-6.046876 4.082032-10.925782 0zm0 0"/></g></svg>