<svg height="512pt" viewBox="-6 0 512 512" width="512pt" xmlns="http://www.w3.org/2000/svg"><path d="m417.257812 140.882812 48.902344 71.003907c22.65625 32.886719 34.785156 71.882812 34.785156 111.820312v131.65625c0 31.28125-25.355468 56.636719-56.636718 56.636719h-276.929688v-188.292969c0-39.9375-12.128906-78.929687-34.785156-111.820312zm0 0" fill="#dd6642"/><path d="m167.378906 323.707031v188.292969h249.878906v-371.117188l-284.664062 71.003907c22.65625 32.890625 34.785156 71.882812 34.785156 111.820312zm0 0" fill="#e7896e"/><path d="m83.691406 140.882812-48.90625 71.003907c-22.65625 32.890625-34.785156 71.882812-34.785156 111.820312v131.65625c0 31.28125 25.355469 56.636719 56.636719 56.636719h276.929687v-188.292969c0-39.9375 12.132813-78.929687 34.785156-111.820312l48.90625-71.003907zm0 0" fill="#f2ad9a"/><path d="m83.691406 140.882812v-72.125c0-26.976562 21.867188-48.84375 48.839844-48.84375h235.882812c26.972657 0 48.84375 21.867188 48.84375 48.84375v72.125zm0 0" fill="#f8cfc5"/><path d="m486.222656 493.457031-68.964844-86.863281-83.691406 105.40625h110.746094c16.609375 0 31.550781-7.152344 41.910156-18.542969zm0 0" fill="#f2ad9a"/><path d="m173.335938 23.46875v100.492188c0 11.074218-3.070313 21.929687-8.875 31.355468l-44.496094 72.3125c-6.628906 10.765625-10.136719 23.160156-10.136719 35.804688v77.027344c0 7.054687 8.480469 10.644531 13.546875 5.734374l20.371094-19.753906 18.511718 18.019532c8.398438 8.175781 21.867188 7.894531 29.921876-.621094l16.449218-17.398438 21.859375 20.371094c5.109375 4.757812 13.433594 1.136719 13.433594-5.84375v-77.539062c0-12.640626 3.507813-25.03125 10.132813-35.796876l44.5-72.328124c5.804687-9.429688 8.875-20.28125 8.875-31.351563v-100.484375c-.003907-12.960938-10.511719-23.46875-23.472657-23.46875h-87.148437c-12.964844 0-23.472656 10.507812-23.472656 23.46875zm0 0" fill="#fcf5af"/><path d="m170.875 459.820312c-15.988281 0-28.945312-12.960937-28.945312-28.949218v-21.046875c0-4.363281 3.535156-7.902344 7.902343-7.902344h42.089844c4.367187 0 7.902344 3.539063 7.902344 7.902344v21.046875c0 15.988281-12.960938 28.949218-28.949219 28.949218zm0 0" fill="#454545"/><path d="m104.921875 430.871094c0-13.578125-13.824219-24.589844-30.878906-24.589844-17.050781 0-30.875 11.011719-30.875 24.589844 0 13.582031 13.824219 24.589844 30.875 24.589844 17.054687 0 30.878906-11.007813 30.878906-24.589844zm0 0" fill="#ffd2e3"/><path d="m298.585938 430.871094c0-13.578125-13.824219-24.589844-30.875-24.589844-17.054688 0-30.878907 11.011719-30.878907 24.589844 0 13.582031 13.824219 24.589844 30.878907 24.589844 17.050781 0 30.875-11.007813 30.875-24.589844zm0 0" fill="#ffd2e3"/><path d="m253.96875 417.375c-4.269531 0-7.726562-3.460938-7.726562-7.726562v-12.828126c0-4.265624 3.457031-7.726562 7.726562-7.726562 4.265625 0 7.726562 3.460938 7.726562 7.726562v12.828126c0 4.265624-3.460937 7.726562-7.726562 7.726562zm0 0" fill="#454545"/><path d="m87.785156 417.375c-4.269531 0-7.726562-3.460938-7.726562-7.726562v-12.828126c0-4.265624 3.457031-7.726562 7.726562-7.726562 4.269532 0 7.726563 3.460938 7.726563 7.726562v12.828126c0 4.265624-3.457031 7.726562-7.726563 7.726562zm0 0" fill="#454545"/><path d="m298.554688 155.304688c2.78125-4.519532 4.9375-9.375 6.425781-14.421876h-134.085938c-1.492187 5.050782-3.648437 9.910157-6.433593 14.4375l-44.5 72.308594c-4.625 7.519532-7.730469 15.832032-9.183594 24.464844h134.089844c1.453124-8.632812 4.558593-16.945312 9.183593-24.460938zm0 0" fill="#f4e74d"/></svg>