<svg height="512pt" viewBox="0 -47 512.00024 512" width="512pt" xmlns="http://www.w3.org/2000/svg"><path d="m329.914062 3.824219c-8.148437-6.148438-19.703124-4.738281-26.132812 3.191406l-255.800781 315.570313c-11.753907 14.503906-9.148438 35.863281 5.753906 47.109374 14.902344 11.25 36.160156 7.90625 46.882813-7.375l233.390624-332.488281c5.867188-8.355469 4.058594-19.855469-4.09375-26.007812zm0 0" fill="#ffc7a4"/><path d="m378.6875 53.800781c-5.953125-8.296875-17.40625-10.386719-25.902344-4.726562l-338.078125 225.210937c-15.539062 10.347656-19.402343 31.519532-8.519531 46.691406 10.878906 15.167969 32.171875 18.296876 46.957031 6.898438l321.710938-248.027344c8.085937-6.230468 9.78125-17.75 3.832031-26.046875zm0 0" fill="#ffe4d3"/><path d="m507.511719 270.960938c.125-17.613282-14.875-32.027344-32.488281-32.027344h-214.539063c-17.617187 0-32.617187 14.410156-32.492187 32.027344.074218 10.269531 5.019531 19.375 12.636718 25.136718 3.601563 2.722656 5.671875 7.105469 4.96875 11.566406-1.527344 9.699219 1.4375 19.96875 8.914063 27.445313 5.976562 5.980469 13.742187 9.078125 21.574219 9.296875 4.648437.132812 8.664062 3.105469 10.558593 7.351562 4.953125 11.109376 16.097657 18.855469 29.046875 18.855469 7 0 13.46875-2.265625 18.71875-6.097656 4.390625-3.207031 10.234375-3.207031 14.625 0 5.25 3.832031 11.71875 6.097656 18.71875 6.097656 6.996094 0 13.464844-2.265625 18.714844-6.097656 4.390625-3.207031 10.238281-3.207031 14.628906 0 5.25 3.832031 11.714844 6.097656 18.714844 6.097656 12.949219 0 24.089844-7.746093 29.046875-18.851562 1.9375-4.335938 6.085937-7.1875 10.832031-7.363281 8.75-.328126 17.332032-4.246094 23.34375-11.535157 5.964844-7.234375 8.195313-16.316406 6.914063-24.914062-.683594-4.570313 1.242187-9.0625 4.925781-11.851563 7.617188-5.757812 12.5625-14.867187 12.636719-25.136718zm0 0" fill="#a4e7ff"/><path d="m390.96875 298.289062c45.539062-1.625 79.0625-27.617187 79.0625-27.617187v-31.738281h-209.546875c-17.617187 0-32.617187 14.410156-32.492187 32.023437.074218 10.269531 5.019531 19.378907 12.636718 25.136719 3.601563 2.726562 5.671875 7.105469 4.96875 11.566406-1.527344 9.699219 1.4375 19.972656 8.914063 27.449219 5.976562 5.976563 13.742187 9.074219 21.574219 9.296875 4.648437.128906 8.664062 3.105469 10.558593 7.351562 4.953125 11.109376 16.097657 18.851563 29.046875 18.851563 7 0 13.46875-2.265625 18.71875-6.097656 4.390625-3.207031 10.234375-3.207031 14.625 0 5.25 3.832031 11.71875 6.097656 18.71875 6.097656 3.304688 0 6.496094-.503906 9.492188-1.441406-6.652344-10.175781-11.304688-20.167969-14.527344-29.355469-6.96875-19.851562 7.222656-40.773438 28.25-41.523438zm0 0" fill="#5ad6ff"/><path d="m415.054688 264.363281c-29.046876-19.058593-65.871094-19.527343-94.605469 0-28.347657 19.265625-66.941407 11.902344-86.207031-16.445312-19.265626-28.34375-11.902344-66.941407 16.445312-86.207031 34.667969-23.5625 75.148438-36.015626 117.066406-36.015626 41.914063 0 82.394532 12.453126 117.066406 36.015626 28.34375 19.265624 35.707032 57.863281 16.445313 86.207031-12.007813 17.667969-50.164063 40.09375-86.210937 16.445312zm0 0" fill="#ff938a"/><g fill="#ffc4bf"><path d="m276.269531 200.480469c2.789063 13.652343 15.480469 16 21.773438 14.800781 10.101562-1.929688 16.726562-11.675781 14.800781-21.777344-3.773438-19.785156-12.800781-37.476562-25.605469-51.644531-11.984375 5.03125-23.542969 11.210937-34.527343 18.496094 11.863281 10.035156 20.269531 24.039062 23.558593 40.125zm0 0"/><path d="m349.066406 180.074219c-1.097656 13.890625 10.449219 19.65625 16.828125 20.246093 10.238281.941407 19.304688-6.59375 20.246094-16.832031 1.882813-20.421875-2.058594-40.265625-10.769531-57.652343-2.535156-.089844-5.070313-.136719-7.617188-.136719-11.820312 0-23.527344.992187-35.023437 2.941406 11.832031 13.917969 17.84375 32.269531 16.335937 51.433594zm0 0"/><path d="m429.191406 184.511719c-4.214844 13.28125 5.722656 21.515625 11.804688 23.535156 9.757812 3.238281 20.296875-2.046875 23.535156-11.808594 4.816406-14.523437 6.398438-29.476562 5.011719-43.984375-13.660157-7.664062-28.050781-13.722656-42.945313-18.109375 6.914063 15.476563 8 33.324219 2.59375 50.367188zm0 0"/></g><path d="m82.402344 248.15625v106.636719c0 35.117187 48.675781 63.585937 108.71875 63.585937 60.039062 0 108.714844-28.46875 108.714844-63.585937v-106.636719zm0 0" fill="#8697a6"/><path d="m223.503906 248.15625h-141.101562v106.636719c0 26.128906 26.953125 48.582031 65.484375 58.359375-2.9375-16.1875-3.835938-32.027344-3.839844-45.566406-.011719-20.023438 14.464844-37.226563 34.203125-40.574219 28.070312-4.765625 45.253906-18.136719 45.253906-18.136719zm0 0" fill="#6b7d8e"/><path d="m299.835938 248.15625c0-35.121094-48.675782-63.589844-108.714844-63.589844-60.042969 0-108.71875 28.46875-108.71875 63.589844 0 35.117188 48.675781 63.585938 108.71875 63.585938 60.039062 0 108.714844-28.46875 108.714844-63.585938zm0 0" fill="#a4e7ff"/><path d="m236.246094 248.15625c0-13.21875-20.203125-23.933594-45.125-23.933594-24.925782 0-45.128906 10.714844-45.128906 23.933594 0 13.214844 20.203124 23.929688 45.128906 23.929688 24.921875 0 45.125-10.714844 45.125-23.929688zm0 0" fill="#ff8a98"/><path d="m239.957031 370.371094c-4.269531 0-7.726562-3.460938-7.726562-7.726563v-12.828125c0-4.265625 3.457031-7.722656 7.726562-7.722656s7.726563 3.457031 7.726563 7.722656v12.828125c0 4.265625-3.460938 7.726563-7.726563 7.726563zm0 0" fill="#454545"/><path d="m142.28125 370.371094c-4.269531 0-7.726562-3.460938-7.726562-7.726563v-12.828125c0-4.265625 3.457031-7.722656 7.726562-7.722656s7.726562 3.457031 7.726562 7.722656v12.828125c0 4.265625-3.460937 7.726563-7.726562 7.726563zm0 0" fill="#454545"/><path d="m196.394531 354.925781c-1.730469 2.542969-4.25 2.847657-5.277343 2.847657-1.023438 0-3.589844-.277344-5.277344-2.847657-2.34375-3.566406-7.132813-4.558593-10.699219-2.214843s-4.558594 7.132812-2.214844 10.699218c4.035157 6.148438 10.839844 9.816406 18.191407 9.816406 7.355468 0 14.15625-3.667968 18.195312-9.816406 2.339844-3.566406 1.347656-8.355468-2.21875-10.699218-1.304688-.859376-7.085938-3.082032-10.699219 2.214843zm0 0" fill="#454545"/></svg>