<svg height="512pt" viewBox="-57 0 512 512.00206" width="512pt" xmlns="http://www.w3.org/2000/svg"><path d="m392.589844 127.835938c-12.28125-36.277344-44.902344-59.898438-80.847656-62.480469-14.375-1.035157-27.644532-8.4375-35.347657-20.613281-17.117187-27.050782-45.511719-44.742188-77.652343-44.742188-32.136719 0-60.535157 17.691406-77.648438 44.742188-7.703125 12.175781-20.976562 19.578124-35.347656 20.613281-35.945313 2.582031-68.570313 26.203125-80.847656 62.480469-13.410157 39.621093 1.617187 82.003906 34.113281 104.976562 10.460937 7.394531 18.035156 18.355469 20.503906 30.925781 5.203125 26.492188 25 49.035157 52.863281 56.382813 36.167969 9.539062 73.148438-9.902344 86.363282-43.96875 13.21875 34.066406 50.195312 53.507812 86.367187 43.96875 27.863281-7.347656 47.660156-29.886719 52.863281-56.382813 2.46875-12.570312 10.039063-23.53125 20.503906-30.925781 32.496094-22.972656 47.523438-65.355469 34.113282-104.976562zm0 0" fill="#73da8c"/><path d="m248.25 15.425781c-14.402344-9.785156-31.359375-15.425781-49.507812-15.425781-32.136719 0-60.535157 17.691406-77.648438 44.742188-7.703125 12.175781-20.972656 19.578124-35.347656 20.613281-35.945313 2.582031-68.570313 26.203125-80.847656 62.480469-13.410157 39.621093 1.617187 82.003906 34.113281 104.976562 10.460937 7.394531 18.035156 18.355469 20.503906 30.925781 5.203125 26.496094 25 49.035157 52.863281 56.382813 36.171875 9.539062 73.148438-9.902344 86.367188-43.96875 0 0 9.550781-57.988282-24.734375-110.503906-11.742188-17.980469-15.757813-40.042969-10.246094-60.800782 20.359375-76.695312 84.484375-89.421875 84.484375-89.421875zm0 0" fill="#29ce69"/><path d="m124.523438 205.359375c17.066406 12.691406 44.195312 37.925781 44.195312 75.4375 0 0-.195312 9.332031-.410156 24.070313h62.132812c-.082031-5.777344-.0625-10.6875-.003906-14.515626.117188-8.1875-.9375-16.347656-3.214844-24.214843-7.441406-25.660157-29.230468-76.773438-86.445312-93.675781-14.230469-4.207032-20.503906 7.722656-20.625 7.898437-5.476563 8.15625-3.511719 19.136719 4.371094 25zm0 0" fill="#dd6642"/><path d="m230.445312 304.867188c-.085937-5.777344-.0625-10.683594-.007812-14.515626.117188-8.1875-.933594-16.347656-3.214844-24.214843-6.054687-20.882813-21.617187-58.625-58.042968-81.066407-6.191407 7.496094-14.773438 21.101563-20.296876 43.25 10.867188 13.398438 19.835938 30.910157 19.835938 52.476563 0 0-.195312 9.332031-.410156 24.070313zm0 0" fill="#b24e2f"/><path d="m231.15625 281.058594c0-37.511719 26.003906-63.003906 43.074219-75.699219 7.878906-5.859375 9.847656-16.84375 4.367187-24.996094-.117187-.175781-6.390625-12.105469-20.621094-7.902343-57.214843 16.902343-79.003906 68.015624-86.445312 93.675781-2.28125 7.867187-3.332031 16.027343-3.214844 24.21875.441406 30.386719-1.332031 128.550781-39.578125 192.800781h141.738281c-45.722656-76.816406-39.320312-202.097656-39.320312-202.097656zm0 0" fill="#e7896e"/><path d="m267.007812 434.460938-17.878906 16.382812c-5.929687 5.429688-15.105468 5.132812-20.667968-.671875l-12.28125-12.8125c-9.5-9.917969-25.351563-9.917969-34.859376 0l-12.277343 12.8125c-5.5625 5.804687-14.742188 6.101563-20.667969.671875l-17.878906-16.382812c-9.386719-8.597657-23.835938-8.429688-33.019532.382812l-15.777343 15.132812c-12.046875 10.207032-11.082031 25.996094-11.082031 25.996094 0 19.898438 16.128906 36.027344 36.023437 36.027344h184.214844c19.898437 0 36.027343-16.128906 36.027343-36.027344 0 0 0-16.925781-11.082031-25.996094l-15.777343-15.132812c-9.179688-8.816406-23.632813-8.980469-33.015626-.382812zm0 0" fill="#73da8c"/><g fill="#fd5c6f"><path d="m263.703125 120.378906c0 8.535156-6.921875 15.453125-15.453125 15.453125-8.535156 0-15.453125-6.917969-15.453125-15.453125s6.917969-15.453125 15.453125-15.453125c8.53125 0 15.453125 6.917969 15.453125 15.453125zm0 0"/><path d="m357.792969 177.488281c0 8.535157-6.917969 15.453125-15.453125 15.453125s-15.453125-6.917968-15.453125-15.453125c0-8.535156 6.917969-15.453125 15.453125-15.453125s15.453125 6.917969 15.453125 15.453125zm0 0"/><path d="m127.933594 260.683594c0 8.535156-6.921875 15.453125-15.453125 15.453125-8.535157 0-15.453125-6.917969-15.453125-15.453125s6.917968-15.453125 15.453125-15.453125c8.53125 0 15.453125 6.917969 15.453125 15.453125zm0 0"/><path d="m101.503906 135.832031c0 8.535157-6.917968 15.453125-15.449218 15.453125-8.535157 0-15.453126-6.917968-15.453126-15.453125 0-8.535156 6.917969-15.453125 15.453126-15.453125 8.53125 0 15.449218 6.917969 15.449218 15.453125zm0 0"/><path d="m198.078125 59.691406c0 8.535156-6.917969 15.453125-15.453125 15.453125s-15.453125-6.917969-15.453125-15.453125 6.917969-15.453125 15.453125-15.453125 15.453125 6.917969 15.453125 15.453125zm0 0"/></g><path d="m195.425781 470.058594c4.914063-27.363282 20.757813-32.699219 20.757813-32.699219-9.503906-9.917969-25.355469-9.917969-34.859375 0l-12.28125 12.8125c-5.558594 5.804687-14.738281 6.101563-20.664063.671875l-17.878906-16.378906c-9.386719-8.601563-23.835938-8.433594-33.023438.378906l-15.773437 15.136719c-12.050781 10.203125-11.085937 25.996093-11.085937 25.996093 0 19.894532 16.128906 36.027344 36.027343 36.027344h101.824219c-7.730469-11.085937-15.757812-26.832031-13.042969-41.945312zm0 0" fill="#29ce69"/></svg>