<?xml version="1.0"?>
<svg xmlns="http://www.w3.org/2000/svg" xmlns:xlink="http://www.w3.org/1999/xlink" version="1.1" id="Capa_1" x="0px" y="0px" width="512px" height="512px" viewBox="0 0 98.174 98.174" style="enable-background:new 0 0 98.174 98.174;" xml:space="preserve" class=""><g><g>
	<g>
		<path d="M83.791,83.721c-0.847-16.42-5.632-26.749-11.313-32.971c-2.104,12.039-6.424,22.865-6.5,23.037v13.688v0.434    c-2.705,2.525-8.984,4.021-17.037,4.021c-7.755,0-13.918-1.5-16.744-4.039v-0.96V73.787c-0.075-0.17-4.334-10.496-6.5-23.047    c-5.679,6.229-10.463,16.564-11.313,32.982c-0.2,3.941,2.447,7.325,5.923,7.555c0.122,0.01,6.795,0.349,6.795,0.349    c3.953,4.351,11.814,6.548,21.839,6.548c9.443,0,17.984-1.838,22.131-6.548c0,0,6.675-0.339,6.801-0.349    C81.345,91.049,83.996,87.665,83.791,83.721z" data-original="#000000" class="active-path" data-old_color="#000000" fill="#E9E9E9"/>
		<path d="M68.044,46.785c-0.633-0.455-1.268-0.873-1.898-1.248c-4.423,5.775-10.496,9.14-17.056,9.14    c-6.688,0-12.812-3.334-17.202-9.071c-0.005,0.004-0.011,0.008-0.019,0.012c-0.579,0.35-1.159,0.736-1.739,1.153    c0.311,2.252,0.812,4.834,1.405,7.469c5.615,4.379,9.855,6.519,17.553,6.519c8.089,0,12.802-2.538,17.547-6.497    C67.231,51.625,67.733,49.039,68.044,46.785z" data-original="#000000" class="active-path" data-old_color="#000000" fill="#E9E9E9"/>
		<rect x="40.408" y="76.158" width="17.357" height="3.869" data-original="#000000" class="active-path" data-old_color="#000000" fill="#E9E9E9"/>
		<path d="M33.758,42.422c3.791,5.568,9.252,8.823,15.329,8.823c6.328,0,11.598-3.343,15.303-8.825    c5,0.368,10.805,1.631,10.805,1.631c0.745-9.075,0.341-13.901-0.566-18.429c-2.459-12.258-7.744-18.4-10.987-21.243    C60.553,1.673,56.025,0,49.087,0C39.81,0,31.178,2.066,24.549,21.536c-1.488,4.37-2.53,12.74-1.569,22.515    C22.98,44.051,28.764,42.792,33.758,42.422z M45.279,17.332c1.074,1.42,8.008,9.989,18.83,10.733    c-1.564,10.045-7.106,17.334-15.021,17.334c-8.405,0-14.644-8.373-15.36-20.221C41.336,23.38,44.257,19.379,45.279,17.332z" data-original="#000000" class="active-path" data-old_color="#000000" fill="#E9E9E9"/>
	</g>
</g></g> </svg>
